<svg width="20" height="20" viewBox="0 0 20 20" fill="none" xmlns="http://www.w3.org/2000/svg">
<path id="Vector" d="M19.9604 12.7568C19.3268 14.825 18.0571 16.6407 16.3319 17.9455C14.8173 19.0855 13.0149 19.7807 11.127 19.9532C9.23917 20.1258 7.3406 19.7687 5.64441 18.9221C3.94822 18.0756 2.52154 16.773 1.52452 15.1606C0.527497 13.5483 -0.000411107 11.69 4.79949e-05 9.79425C-0.00676793 7.58154 0.712554 5.42771 2.04766 3.66317C3.35246 1.93799 5.16814 0.668289 7.23632 0.0347397C7.37263 -0.00723215 7.5178 -0.0112513 7.65623 0.0231146C7.79465 0.0574806 7.92109 0.128931 8.02194 0.229782C8.12279 0.330634 8.19424 0.45707 8.22861 0.595493C8.26297 0.733916 8.25895 0.879088 8.21698 1.0154C7.76474 2.51132 7.72682 4.10191 8.10727 5.61769C8.48771 7.13346 9.27226 8.51762 10.3773 9.62268C11.4824 10.7277 12.8665 11.5123 14.3823 11.8927C15.8981 12.2732 17.4887 12.2353 18.9846 11.783C19.1209 11.741 19.2661 11.737 19.4045 11.7714C19.5429 11.8058 19.6694 11.8772 19.7702 11.9781C19.8711 12.0789 19.9425 12.2054 19.9769 12.3438C20.0113 12.4822 20.0072 12.6274 19.9653 12.7637L19.9604 12.7568Z" fill="#E6E5E5"/>
</svg>
