<svg width="20" height="21" viewBox="0 0 20 21" fill="none" xmlns="http://www.w3.org/2000/svg">
<path id="Vector" d="M19.9604 13.259C19.3268 15.3272 18.0571 17.1429 16.3319 18.4477C14.8173 19.5877 13.0149 20.283 11.127 20.4555C9.23917 20.628 7.3406 20.2709 5.64441 19.4244C3.94822 18.5778 2.52154 17.2752 1.52452 15.6629C0.527497 14.0505 -0.000411107 12.1922 4.79949e-05 10.2965C-0.00676793 8.08377 0.712554 5.92994 2.04766 4.1654C3.35246 2.44022 5.16814 1.17052 7.23632 0.536968C7.37263 0.494996 7.5178 0.490977 7.65623 0.525342C7.79465 0.559708 7.92109 0.631159 8.02194 0.73201C8.12279 0.832861 8.19424 0.959297 8.22861 1.09772C8.26297 1.23614 8.25895 1.38132 8.21698 1.51763C7.76474 3.01355 7.72682 4.60414 8.10727 6.11992C8.48771 7.63569 9.27226 9.01985 10.3773 10.1249C11.4824 11.23 12.8665 12.0145 14.3823 12.395C15.8981 12.7754 17.4887 12.7375 18.9846 12.2852C19.1209 12.2433 19.2661 12.2393 19.4045 12.2736C19.5429 12.308 19.6694 12.3794 19.7702 12.4803C19.8711 12.5811 19.9425 12.7076 19.9769 12.846C20.0113 12.9844 20.0072 13.1296 19.9653 13.2659L19.9604 13.259Z" fill="black" fill-opacity="0.5"/>
</svg>
