<svg width="25" height="25" viewBox="0 0 25 25" fill="none" xmlns="http://www.w3.org/2000/svg">
<path id="Vector" d="M11.6667 3.33333V0.833333C11.6667 0.61232 11.7545 0.400358 11.9107 0.244078C12.067 0.0877973 12.279 0 12.5 0C12.721 0 12.933 0.0877973 13.0893 0.244078C13.2455 0.400358 13.3333 0.61232 13.3333 0.833333V3.33333C13.3333 3.55435 13.2455 3.76631 13.0893 3.92259C12.933 4.07887 12.721 4.16667 12.5 4.16667C12.279 4.16667 12.067 4.07887 11.9107 3.92259C11.7545 3.76631 11.6667 3.55435 11.6667 3.33333ZM12.5 5.83333C11.1815 5.83333 9.89253 6.22433 8.7962 6.95687C7.69987 7.68941 6.84539 8.7306 6.3408 9.94878C5.83622 11.167 5.7042 12.5074 5.96143 13.8006C6.21867 15.0938 6.8536 16.2817 7.78595 17.214C8.7183 18.1464 9.90619 18.7813 11.1994 19.0386C12.4926 19.2958 13.833 19.1638 15.0512 18.6592C16.2694 18.1546 17.3106 17.3001 18.0431 16.2038C18.7757 15.1075 19.1667 13.8185 19.1667 12.5C19.1647 10.7325 18.4617 9.03791 17.2119 7.78809C15.9621 6.53826 14.2675 5.83526 12.5 5.83333ZM5.24375 6.42292C5.40012 6.57928 5.6122 6.66713 5.83333 6.66713C6.05447 6.66713 6.26655 6.57928 6.42292 6.42292C6.57928 6.26655 6.66713 6.05447 6.66713 5.83333C6.66713 5.6122 6.57928 5.40012 6.42292 5.24375L4.75625 3.57708C4.59988 3.42072 4.3878 3.33287 4.16667 3.33287C3.94553 3.33287 3.73345 3.42072 3.57708 3.57708C3.42072 3.73345 3.33287 3.94553 3.33287 4.16667C3.33287 4.3878 3.42072 4.59988 3.57708 4.75625L5.24375 6.42292ZM5.24375 18.5771L3.57708 20.2437C3.42072 20.4001 3.33287 20.6122 3.33287 20.8333C3.33287 21.0545 3.42072 21.2666 3.57708 21.4229C3.73345 21.5793 3.94553 21.6671 4.16667 21.6671C4.3878 21.6671 4.59988 21.5793 4.75625 21.4229L6.42292 19.7563C6.50034 19.6788 6.56176 19.5869 6.60366 19.4857C6.64556 19.3846 6.66713 19.2762 6.66713 19.1667C6.66713 19.0572 6.64556 18.9487 6.60366 18.8476C6.56176 18.7464 6.50034 18.6545 6.42292 18.5771C6.34549 18.4997 6.25358 18.4382 6.15241 18.3963C6.05125 18.3544 5.94283 18.3329 5.83333 18.3329C5.72384 18.3329 5.61541 18.3544 5.51425 18.3963C5.41309 18.4382 5.32118 18.4997 5.24375 18.5771ZM19.1667 6.66667C19.2761 6.66675 19.3845 6.64527 19.4857 6.60345C19.5869 6.56162 19.6788 6.50028 19.7563 6.42292L21.4229 4.75625C21.5793 4.59988 21.6671 4.3878 21.6671 4.16667C21.6671 3.94553 21.5793 3.73345 21.4229 3.57708C21.2666 3.42072 21.0545 3.33287 20.8333 3.33287C20.6122 3.33287 20.4001 3.42072 20.2437 3.57708L18.5771 5.24375C18.4604 5.3603 18.3809 5.50884 18.3487 5.67058C18.3165 5.83232 18.333 5.99997 18.3961 6.15233C18.4593 6.30468 18.5662 6.43488 18.7033 6.52643C18.8405 6.61799 19.0018 6.6668 19.1667 6.66667ZM19.7563 18.5771C19.5999 18.4207 19.3878 18.3329 19.1667 18.3329C18.9455 18.3329 18.7334 18.4207 18.5771 18.5771C18.4207 18.7334 18.3329 18.9455 18.3329 19.1667C18.3329 19.3878 18.4207 19.5999 18.5771 19.7563L20.2437 21.4229C20.3212 21.5003 20.4131 21.5618 20.5143 21.6037C20.6154 21.6456 20.7238 21.6671 20.8333 21.6671C20.9428 21.6671 21.0513 21.6456 21.1524 21.6037C21.2536 21.5618 21.3455 21.5003 21.4229 21.4229C21.5003 21.3455 21.5618 21.2536 21.6037 21.1524C21.6456 21.0513 21.6671 20.9428 21.6671 20.8333C21.6671 20.7238 21.6456 20.6154 21.6037 20.5143C21.5618 20.4131 21.5003 20.3212 21.4229 20.2437L19.7563 18.5771ZM4.16667 12.5C4.16667 12.279 4.07887 12.067 3.92259 11.9107C3.76631 11.7545 3.55435 11.6667 3.33333 11.6667H0.833333C0.61232 11.6667 0.400358 11.7545 0.244078 11.9107C0.0877973 12.067 0 12.279 0 12.5C0 12.721 0.0877973 12.933 0.244078 13.0893C0.400358 13.2455 0.61232 13.3333 0.833333 13.3333H3.33333C3.55435 13.3333 3.76631 13.2455 3.92259 13.0893C4.07887 12.933 4.16667 12.721 4.16667 12.5ZM12.5 20.8333C12.279 20.8333 12.067 20.9211 11.9107 21.0774C11.7545 21.2337 11.6667 21.4457 11.6667 21.6667V24.1667C11.6667 24.3877 11.7545 24.5996 11.9107 24.7559C12.067 24.9122 12.279 25 12.5 25C12.721 25 12.933 24.9122 13.0893 24.7559C13.2455 24.5996 13.3333 24.3877 13.3333 24.1667V21.6667C13.3333 21.4457 13.2455 21.2337 13.0893 21.0774C12.933 20.9211 12.721 20.8333 12.5 20.8333ZM24.1667 11.6667H21.6667C21.4457 11.6667 21.2337 11.7545 21.0774 11.9107C20.9211 12.067 20.8333 12.279 20.8333 12.5C20.8333 12.721 20.9211 12.933 21.0774 13.0893C21.2337 13.2455 21.4457 13.3333 21.6667 13.3333H24.1667C24.3877 13.3333 24.5996 13.2455 24.7559 13.0893C24.9122 12.933 25 12.721 25 12.5C25 12.279 24.9122 12.067 24.7559 11.9107C24.5996 11.7545 24.3877 11.6667 24.1667 11.6667Z" fill="#1A1A1A"/>
</svg>
