<svg width="25" height="26" viewBox="0 0 25 26" fill="none" xmlns="http://www.w3.org/2000/svg">
<path id="Vector" d="M11.6667 3.83111V1.33111C11.6667 1.11009 11.7545 0.89813 11.9107 0.74185C12.067 0.58557 12.279 0.497772 12.5 0.497772C12.721 0.497772 12.933 0.58557 13.0893 0.74185C13.2455 0.89813 13.3333 1.11009 13.3333 1.33111V3.83111C13.3333 4.05212 13.2455 4.26408 13.0893 4.42036C12.933 4.57664 12.721 4.66444 12.5 4.66444C12.279 4.66444 12.067 4.57664 11.9107 4.42036C11.7545 4.26408 11.6667 4.05212 11.6667 3.83111ZM12.5 6.33111C11.1815 6.33111 9.89253 6.7221 8.7962 7.45464C7.69987 8.18718 6.84539 9.22838 6.3408 10.4465C5.83622 11.6647 5.7042 13.0052 5.96143 14.2984C6.21867 15.5916 6.8536 16.7795 7.78595 17.7118C8.7183 18.6442 9.90619 19.2791 11.1994 19.5363C12.4926 19.7936 13.833 19.6616 15.0512 19.157C16.2694 18.6524 17.3106 17.7979 18.0431 16.7016C18.7757 15.6052 19.1667 14.3163 19.1667 12.9978C19.1647 11.2303 18.4617 9.53568 17.2119 8.28586C15.9621 7.03603 14.2675 6.33304 12.5 6.33111ZM5.24375 6.92069C5.40012 7.07706 5.6122 7.1649 5.83333 7.1649C6.05447 7.1649 6.26655 7.07706 6.42292 6.92069C6.57928 6.76432 6.66713 6.55224 6.66713 6.33111C6.66713 6.10997 6.57928 5.89789 6.42292 5.74152L4.75625 4.07486C4.59988 3.91849 4.3878 3.83064 4.16667 3.83064C3.94553 3.83064 3.73345 3.91849 3.57708 4.07486C3.42072 4.23122 3.33287 4.4433 3.33287 4.66444C3.33287 4.88558 3.42072 5.09765 3.57708 5.25402L5.24375 6.92069ZM5.24375 19.0749L3.57708 20.7415C3.42072 20.8979 3.33287 21.11 3.33287 21.3311C3.33287 21.5522 3.42072 21.7643 3.57708 21.9207C3.73345 22.0771 3.94553 22.1649 4.16667 22.1649C4.3878 22.1649 4.59988 22.0771 4.75625 21.9207L6.42292 20.254C6.50034 20.1766 6.56176 20.0847 6.60366 19.9835C6.64556 19.8824 6.66713 19.7739 6.66713 19.6644C6.66713 19.5549 6.64556 19.4465 6.60366 19.3454C6.56176 19.2442 6.50034 19.1523 6.42292 19.0749C6.34549 18.9974 6.25358 18.936 6.15241 18.8941C6.05125 18.8522 5.94283 18.8306 5.83333 18.8306C5.72384 18.8306 5.61541 18.8522 5.51425 18.8941C5.41309 18.936 5.32118 18.9974 5.24375 19.0749ZM19.1667 7.16444C19.2761 7.16453 19.3845 7.14304 19.4857 7.10122C19.5869 7.0594 19.6788 6.99805 19.7563 6.92069L21.4229 5.25402C21.5793 5.09765 21.6671 4.88558 21.6671 4.66444C21.6671 4.4433 21.5793 4.23122 21.4229 4.07486C21.2666 3.91849 21.0545 3.83064 20.8333 3.83064C20.6122 3.83064 20.4001 3.91849 20.2437 4.07486L18.5771 5.74152C18.4604 5.85807 18.3809 6.00661 18.3487 6.16835C18.3165 6.33009 18.333 6.49775 18.3961 6.6501C18.4593 6.80245 18.5662 6.93265 18.7033 7.02421C18.8405 7.11577 19.0018 7.16457 19.1667 7.16444ZM19.7563 19.0749C19.5999 18.9185 19.3878 18.8306 19.1667 18.8306C18.9455 18.8306 18.7334 18.9185 18.5771 19.0749C18.4207 19.2312 18.3329 19.4433 18.3329 19.6644C18.3329 19.8856 18.4207 20.0977 18.5771 20.254L20.2437 21.9207C20.3212 21.9981 20.4131 22.0595 20.5143 22.1014C20.6154 22.1433 20.7238 22.1649 20.8333 22.1649C20.9428 22.1649 21.0513 22.1433 21.1524 22.1014C21.2536 22.0595 21.3455 21.9981 21.4229 21.9207C21.5003 21.8433 21.5618 21.7513 21.6037 21.6502C21.6456 21.549 21.6671 21.4406 21.6671 21.3311C21.6671 21.2216 21.6456 21.1132 21.6037 21.012C21.5618 20.9109 21.5003 20.8189 21.4229 20.7415L19.7563 19.0749ZM4.16667 12.9978C4.16667 12.7768 4.07887 12.5648 3.92259 12.4085C3.76631 12.2522 3.55435 12.1644 3.33333 12.1644H0.833333C0.61232 12.1644 0.400358 12.2522 0.244078 12.4085C0.0877973 12.5648 0 12.7768 0 12.9978C0 13.2188 0.0877973 13.4307 0.244078 13.587C0.400358 13.7433 0.61232 13.8311 0.833333 13.8311H3.33333C3.55435 13.8311 3.76631 13.7433 3.92259 13.587C4.07887 13.4307 4.16667 13.2188 4.16667 12.9978ZM12.5 21.3311C12.279 21.3311 12.067 21.4189 11.9107 21.5752C11.7545 21.7315 11.6667 21.9434 11.6667 22.1644V24.6644C11.6667 24.8855 11.7545 25.0974 11.9107 25.2537C12.067 25.41 12.279 25.4978 12.5 25.4978C12.721 25.4978 12.933 25.41 13.0893 25.2537C13.2455 25.0974 13.3333 24.8855 13.3333 24.6644V22.1644C13.3333 21.9434 13.2455 21.7315 13.0893 21.5752C12.933 21.4189 12.721 21.3311 12.5 21.3311ZM24.1667 12.1644H21.6667C21.4457 12.1644 21.2337 12.2522 21.0774 12.4085C20.9211 12.5648 20.8333 12.7768 20.8333 12.9978C20.8333 13.2188 20.9211 13.4307 21.0774 13.587C21.2337 13.7433 21.4457 13.8311 21.6667 13.8311H24.1667C24.3877 13.8311 24.5996 13.7433 24.7559 13.587C24.9122 13.4307 25 13.2188 25 12.9978C25 12.7768 24.9122 12.5648 24.7559 12.4085C24.5996 12.2522 24.3877 12.1644 24.1667 12.1644Z" fill="white" fill-opacity="0.5"/>
</svg>
